<svg xmlns="http://www.w3.org/2000/svg" xmlns:xlink="http://www.w3.org/1999/xlink" height="800" width="1200" xml:space="preserve" y="0" x="0" id="Layer_1" version="1.1" viewBox="-27.3 -17.975 236.6 107.85"><style id="style18209" type="text/css">.st0{clip-path:url(#SVGID_2_);fill:#0094a1}</style><g id="g18223"><defs id="defs18212"><path id="SVGID_1_" d="M0 0h182v71.9H0z"/></defs><clipPath id="SVGID_2_"><use height="100%" width="100%" y="0" x="0" id="use18214" xlink:href="#SVGID_1_" overflow="visible"/></clipPath><path id="path18217" clip-path="url(#SVGID_2_)" d="M175 2.8v-.2c0-.1-.1-.1-.2-.2-.1 0-.2-.1-.2-.1h-.6v1h.6c.1 0 .2-.1.3-.1.1 0 .1-.1.1-.2v-.2m1.6 2.6h-1.2l-1.1-1.3h-.3v1.3h-.9V1.8h2c.2 0 .3.1.5.2s.3.2.4.3c.1.1.1.3.1.5 0 .3-.1.5-.2.7-.1.2-.3.3-.6.4zm.8-1.7c0-.8-.3-1.5-.8-2-.6-.6-1.2-.9-2-.9s-1.5.3-2 .9c-.6.6-.8 1.2-.8 2s.3 1.5.8 2c.6.6 1.2.9 2 .9s1.5-.3 2-.9c.5-.6.8-1.2.8-2m.8 0c0 1-.4 1.9-1.1 2.6-.7.7-1.6 1.1-2.6 1.1s-1.9-.4-2.6-1.1c-.7-.7-1.1-1.6-1.1-2.6s.4-1.9 1.1-2.6c.7-.7 1.6-1.1 2.6-1.1s1.9.4 2.6 1.1c.8.7 1.1 1.6 1.1 2.6" class="st0"/><path id="path18219" clip-path="url(#SVGID_2_)" d="M25.1 3.7c-9 0-16.7 4.7-20.8 11.3C.8 21.2 0 31.2 0 37.8c0 6.6.8 16.7 4.3 22.8 4 6.6 11.7 11.3 20.8 11.3h131.8c9 0 16.7-4.7 20.8-11.3 3.5-6.1 4.3-16.2 4.3-22.8 0-6.6-.8-16.7-4.3-22.8-4-6.6-11.7-11.3-20.8-11.3z" class="st0"/><path id="path18221" clip-path="url(#SVGID_2_)" d="M112.8 34.1h11.1v-.3c0-5.1-2-5.4-5.7-5.4-4.5-.1-5.3 1.3-5.4 5.7m-77.9-5.5c3.6 0 5.6.4 5.6 5.3v.2H29.6c.1-4.2 1-5.5 5.3-5.5M19.5 38c0 11.9 3 16.2 15.6 16.2 4.7 0 8.5-.4 11.3-1.9 2.6-1.5 4.2-4.1 4.2-8.8h-9.9c-.1 3.4-2.4 3.8-5.6 3.8-4.6 0-5.5-1.9-5.5-7.6v-.2h21V38c0-13-3.5-16.3-15.5-16.3-12.8 0-15.6 4-15.6 16.3m37.8-5.9c0 6.4 2.2 9.3 15.6 9.3 1.2 0 3.1-.1 4.2.4 1 .5 1.5 1.4 1.5 3 0 2.8-1 3.1-5.8 3.1-2.6 0-5.3-.1-5.5-3.6h-10c.1 7 3.4 9.3 9.6 9.8 1.9.1 3.9.1 6 .1 8.5 0 15.6-1.4 15.6-10.6 0-8.8-4.6-9.4-15.6-9.7-5.5-.1-5.8-1.3-5.8-3.1 0-2.1.2-2.8 5.8-2.8 2 0 4.1.2 4.5 2.7h9.5v-1.3c0-7.6-8-7.7-14-7.7-9.1 0-15.6.2-15.6 10.4m82.8-10.4h24.8V29h-7.4v24.9h-10.1V29H140v-7.3zm-37.2 16.1c0-12.3 2.7-16.2 15.5-16.2 11.9 0 15.4 3.2 15.4 16.2v1.4h-21v.3c0 5.7.9 7.7 5.6 7.7 3.1 0 5.5-.3 5.7-3.8h9.7c-.1 4.5-1.6 7.1-4.2 8.6-2.7 1.5-6.5 1.9-11.2 1.9-12.5 0-15.5-4.2-15.5-16.1M12.2 59.9C7.1 54.4 6 45.9 6 37.8c0-8.1 1.1-16.6 6.2-22.1 3.2-3.4 9.4-6 14.6-6h67.9v56.2H26.8c-5.3 0-11.4-2.6-14.6-6" fill="#fff"/></g></svg>